<svg xmlns="http://www.w3.org/2000/svg" width="1221.305" height="1082.148" viewBox="0 0 1221.305 1082.148">
  <g id="Path_22" data-name="Path 22" transform="translate(413.566 298.986)">
    <path id="Path_3" data-name="Path 3" d="M175.414,782.085a26.36,26.36,0,0,1-9.1-1.9l-.085-.032H62.9c33.081-.472,65.967-.865,98.315-1.175l.219-.947c-14.531-7.3-34.247-24.466-58.6-51.032-22.8-24.87-49.611-57.909-79.692-98.2C-5.28,590.732-36.255,546.693-68.921,497.9c-31.444-46.963-63.673-97.148-95.793-149.162-31.74-51.4-62.321-102.879-90.894-153.008-29.065-50.991-55.094-98.911-77.366-142.429-23.23-45.39-41.8-84.9-55.206-117.422-14.21-34.485-22.423-60.7-24.41-77.919-1.3-11.247.071-18.64,4.068-21.974,1.867-1.557,4.639-2.313,8.476-2.313A61.364,61.364,0,0,1-385.331-164c5.617,1.442,12.34,3.581,20.553,6.539,15.609,5.622,35.2,13.705,57.886,23.066,29.7,12.254,66.657,27.5,108.844,43.031C-148.7-73.206-101.79-58.153-54.626-45.348c27.883,7.57,56.1,14.391,83.871,20.273,30.379,6.435,61.18,11.949,91.548,16.391,32.8,4.8,66.073,8.487,98.9,10.966,35.127,2.653,70.769,4,105.934,4,17.361,0,34.958-.327,52.3-.972,17.822-.663,35.91-1.682,53.761-3.028l.161-.012.123-.1L789.049-297.957c5.158,99.347,3.5,269.188,2.029,419.1-.643,65.727-1.251,127.809-1.251,179.372,0,25.291-.19,57.684-.392,91.978-.479,81.467-1.076,182.855.392,261.742.248,13.341.781,30.115,1.3,46.338,1.154,36.333,2.347,73.88.723,81.166l-.468-.013-.016.335-.018-.041-.012-.028a12.97,12.97,0,0,1-.469-1.3c.14-.544.152-.646.005-.836l-.15-.194h-.245a.549.549,0,0,0-.516.467l-.016.052c-1.52.124-2.678.249-3.445.374-.882.143-1.556.3-1.553.862a.624.624,0,0,0,.013.132c-11.5-.3-30.324-.763-60.007-1.4-.848-.018-4.239-.027-10.366-.027-6.481,0-15.04.01-22.593.019-6.091.007-11.844.013-15.348.013-1.843,0-2.969,0-3.444-.005-6.322-.049-13.669-.073-22.46-.073-22.965,0-51.908.163-85.422.352-29.8.168-63.573.358-98.222.455-19.613.184-44.513.277-74.013.277-56.839,0-127.636-.34-210.422-1.011h-.145l-.123.076A13,13,0,0,1,175.414,782.085Z" fill="#ff1629"/>
    <path id="Path_4" data-name="Path 4" d="M788.6-296.928,432.049,2.754l-.321.024c-17.857,1.346-35.952,2.366-53.781,3.029C360.6,6.453,343,6.78,325.628,6.78c-35.178,0-70.832-1.346-105.972-4C186.816.3,153.529-3.391,120.719-8.189c-30.377-4.443-61.189-9.96-91.578-16.4-27.778-5.884-56.006-12.707-83.9-20.28C-101.936-57.674-148.863-72.732-198.221-90.9c-42.2-15.53-79.16-30.783-108.862-43.038-22.68-9.358-42.267-17.44-57.865-23.058-8.2-2.952-14.906-5.087-20.507-6.525a60.923,60.923,0,0,0-14.591-2.3c-3.664,0-6.407.739-8.155,2.2-3.86,3.219-5.17,10.464-3.892,21.532,1.981,17.172,10.182,43.343,24.375,77.786,13.4,32.513,31.966,72.007,55.189,117.385,22.268,43.511,48.294,91.425,77.355,142.41,28.57,50.124,59.148,101.6,90.885,152.992,32.117,52.009,64.343,102.189,95.783,149.147C-35.844,546.408-4.875,590.44,23.542,628.5c30.071,40.276,56.872,73.3,79.66,98.159,24.192,26.39,43.785,43.484,58.241,50.815,59.292-.568,116.3-.856,169.466-.856,51.8,0,99.13.288,133.28.811,15.07.231,27.413.507,35.694.8,4.05.142,7.162.289,9.249.435,1.07.075,1.857.149,2.408.225a5.73,5.73,0,0,1,.716.134,1.1,1.1,0,0,1,.935,1.067.946.946,0,0,1-.007.118c18.235-.086,35.783-.185,52.135-.277,33.508-.189,62.446-.352,85.411-.352,8.793,0,16.144.024,22.471.073.475,0,1.631.005,3.434.005,3.5,0,9.251-.006,15.34-.013,7.554-.009,16.117-.019,22.6-.019,6.136,0,9.532.009,10.384.027,29.29.626,48.005,1.081,59.55,1.384a1.3,1.3,0,0,1,.891-.75,7.054,7.054,0,0,1,1.015-.225c.726-.117,1.791-.236,3.173-.352a.959.959,0,0,1,.884-.547h.491l.3.388a1.106,1.106,0,0,1,.142,1.026q-.011.046-.024.1c.034.106.067.207.1.3.606-3.667.788-12.861.559-27.979-.228-14.97-.833-34.006-1.417-52.416-.516-16.224-1.048-33-1.3-46.344-1.468-78.893-.871-180.284-.392-261.754.2-34.294.392-66.686.392-91.975,0-51.566.608-113.649,1.251-179.377,1.462-149.4,3.117-318.593-1.977-418.063M160.979,779.479q-8.594.082-17.237.173h17.587l-.35-.173M789.5-298.986c7.486,142.232.831,429,.831,599.5,0,84.739-2.092,241.269,0,353.711.8,43.274,4.484,118.867,1.907,128.024l-.874-.025-.486-.032a14.2,14.2,0,0,1-.531-1.485c.109-.42.235-.952-.016-.053-7.972.625-5.013,1.158.547,1.538,0,.006.005.013.008.019-12.521-.348-33.226-.858-65.944-1.557-2.967-.064-36.913.005-48.3.005-1.731,0-2.94,0-3.441-.005-6.561-.051-14.1-.073-22.464-.073-43.886,0-110.942.6-183.622.807,97.567-.912,29.8-3.767-136.2-3.767-48.684,0-105.819.246-169.7.858C30.7,712.942-467.127-115.783-408.842-164.393c1.982-1.653,4.927-2.43,8.8-2.43,57.783,0,323.687,172.6,725.674,172.6,34.385,0,69.692-1.259,106.025-4ZM161.21,778.477a51.141,51.141,0,0,0,4.925,2.175H-.711C56.863,779.663,111.121,778.957,161.21,778.477Zm4.925,2.175h16.52a13.439,13.439,0,0,1-7.241,1.932A26.727,26.727,0,0,1,166.135,780.652Zm16.52,0H294.53c55.346.81,115.682.894,172.578.734-18.544.174-43.075.277-74.029.277C341.5,781.663,272.1,781.377,182.655,780.652Zm607.672,0c0,.017.011.035.016.053C790.252,781.054,790.173,781.327,790.327,780.652Zm.555,1.557.478.013q.426.029.865.054C791.889,783.445,791.449,783.492,790.882,782.209Zm1.352.038c13.871.391,16.859.564,15.011.564-1.961,0-9.377-.2-15.02-.535Z" fill="#707070"/>
  </g>
</svg>
